# xmcd
#
# Track frame offsets:
#	150
#	26527
#	43886
#	57447
#
# Disc length: 1136 seconds
#
# Revision: 1
# Processed by: cddbd v1.5PL3 Copyright (c) Steve Scherf et al.
# Submitted via: CDex 1.50Beta5
#
DISCID=31046e04
DTITLE=The Crane Fly - 門出の詩
DYEAR=1900
DGENRE=Pop-Punk
TTITLE0=門出の詩
TTITLE1=桜花
TTITLE2=Seventeen
TTITLE3=門出の詩 アコースティックバージョン
EXTD=
EXTT0=
EXTT1=
EXTT2=
EXTT3=
PLAYORDER=
